name D:\school\WTK\thesis\model\3dpredictsim\Results\MidTarsalJoint\Fal_s1_bCst_PF_Natali2010_ls148_MT_nl_fitted_Mmtp_ig24_kmtp10.mot
datacolumns 128
datarows 4
range 0.56666468 0.60066456
endheader
time	pelvis_tilt	pelvis_list	pelvis_rotation	pelvis_tx	pelvis_ty	pelvis_tz	hip_flexion_l	hip_adduction_l	hip_rotation_l	hip_flexion_r	hip_adduction_r	hip_rotation_r	knee_angle_l	knee_angle_r	ankle_angle_l	ankle_angle_r	subtalar_angle_l	subtalar_angle_r	tmt_angle_l	tmt_angle_r	mtp_angle_l	mtp_angle_r	lumbar_extension	lumbar_bending	lumbar_rotation	arm_flex_l	arm_add_l	arm_rot_l	arm_flex_r	arm_add_r	arm_rot_r	elbow_flex_l	elbow_flex_r	pro_sup_l	pro_sup_r	glut_med1_l/activation	glut_med2_l/activation	glut_med3_l/activation	glut_min1_l/activation	glut_min2_l/activation	glut_min3_l/activation	semimem_l/activation	semiten_l/activation	bifemlh_l/activation	bifemsh_l/activation	sar_l/activation	add_long_l/activation	add_brev_l/activation	add_mag1_l/activation	add_mag2_l/activation	add_mag3_l/activation	tfl_l/activation	pect_l/activation	grac_l/activation	glut_max1_l/activation	glut_max2_l/activation	glut_max3_l/activation	iliacus_l/activation	psoas_l/activation	quad_fem_l/activation	gem_l/activation	peri_l/activation	rect_fem_l/activation	vas_med_l/activation	vas_int_l/activation	vas_lat_l/activation	med_gas_l/activation	lat_gas_l/activation	soleus_l/activation	tib_post_l/activation	flex_dig_l/activation	flex_hal_l/activation	tib_ant_l/activation	per_brev_l/activation	per_long_l/activation	per_tert_l/activation	ext_dig_l/activation	ext_hal_l/activation	ercspn_l/activation	intobl_l/activation	extobl_l/activation	glut_med1_r/activation	glut_med2_r/activation	glut_med3_r/activation	glut_min1_r/activation	glut_min2_r/activation	glut_min3_r/activation	semimem_r/activation	semiten_r/activation	bifemlh_r/activation	bifemsh_r/activation	sar_r/activation	add_long_r/activation	add_brev_r/activation	add_mag1_r/activation	add_mag2_r/activation	add_mag3_r/activation	tfl_r/activation	pect_r/activation	grac_r/activation	glut_max1_r/activation	glut_max2_r/activation	glut_max3_r/activation	iliacus_r/activation	psoas_r/activation	quad_fem_r/activation	gem_r/activation	peri_r/activation	rect_fem_r/activation	vas_med_r/activation	vas_int_r/activation	vas_lat_r/activation	med_gas_r/activation	lat_gas_r/activation	soleus_r/activation	tib_post_r/activation	flex_dig_r/activation	flex_hal_r/activation	tib_ant_r/activation	per_brev_r/activation	per_long_r/activation	per_tert_r/activation	ext_dig_r/activation	ext_hal_r/activation	ercspn_r/activation	intobl_r/activation	extobl_r/activation	
          0.56666468	         -2.92994369	          2.01885308	         -5.16466299	          0.70833085	          0.91744911	          0.00316488	         29.33066500	          3.18279278	         -3.38818022	        -16.94267045	         -0.36352656	          6.48267968	         -9.17658289	         -6.28248760	          6.08597807	         -1.07938431	         -6.15593877	          4.44624485	         -0.15080808	          5.46998139	          3.20631242	         12.39494257	         -2.01188761	         -0.22549746	          1.95634713	         -3.83463318	        -13.46065977	          9.38640917	          5.49170882	        -13.45069661	         17.09531740	         14.97445862	         31.34917082	         86.51662706	         86.51662706	          0.05944439	          0.05944439	          0.05000006	          0.05944442	          0.05944441	          0.05242430	          0.22540064	          0.09139769	          0.16716751	          0.08443048	          0.05000009	          0.16786330	          0.21346788	          0.24208210	          0.21144159	          0.11056242	          0.05000007	          0.05000149	          0.15812566	          0.05000041	          0.05000088	          0.15224455	          0.05000045	          0.05000015	          0.21069097	          0.29149802	          0.13525352	          0.05000007	          0.08685382	          0.08351615	          0.07746324	          0.07135850	          0.07362889	          0.06407617	          0.05000002	          0.05000031	          0.05000029	          0.50342098	          0.26276883	          0.18281967	          0.25811555	          0.43606800	          0.14089412	          0.05944443	          0.12100782	          0.09989275	          0.27664536	          0.10408080	          0.08285636	          0.29567248	          0.19426798	          0.11876098	          0.05000063	          0.05000015	          0.05000008	          0.05237695	          0.11875908	          0.06942929	          0.05000327	          0.05000046	          0.05000061	          0.05000027	          0.32720311	          0.05944589	          0.05001134	          0.05000041	          0.05000034	          0.05000040	          0.47678504	          0.72070065	          0.05000008	          0.05000037	          0.07067299	          0.25035052	          0.05000014	          0.05000014	          0.05000014	          0.30123333	          0.41139403	          0.35478647	          0.31181570	          0.32978893	          0.39684161	          0.05000001	          0.05944423	          0.10121834	          0.05000013	          0.05000003	          0.05000011	          0.05000000	          0.05000002	          0.05000006	
          0.57799797	         -2.92922967	          2.11729224	         -5.46789841	          0.72520946	          0.91654619	          0.00295965	         28.79821633	          3.55034380	         -3.15167019	        -16.85078213	         -0.65911005	          6.25588135	         -9.78297381	         -8.18594810	          5.45512929	         -1.57176239	         -6.48516410	          5.33401472	         -0.28477242	          5.07253850	          3.28928021	         13.66306445	         -1.81504873	         -0.41804859	          2.02144333	         -4.73734954	        -13.45693664	          9.19983868	          5.25352308	        -13.45557051	         17.38050293	         14.59302111	         32.61833532	         86.51662706	         86.51662706	          0.05000000	          0.05000001	          0.08103943	          0.05000002	          0.05000002	          0.05000003	          0.18958945	          0.07687663	          0.14060828	          0.07101637	          0.07067195	          0.14119365	          0.30917620	          0.30873311	          0.19430257	          0.10615979	          0.05000012	          0.08401082	          0.13526262	          0.05000021	          0.09111246	          0.15190517	          0.05000014	          0.07063936	          0.55039285	          0.24518542	          0.11376478	          0.06719113	          0.07319792	          0.08489467	          0.07085556	          0.06989393	          0.07067277	          0.06272325	          0.05944448	          0.05944403	          0.05944465	          0.46687336	          0.23675192	          0.22420420	          0.21710685	          0.36678641	          0.14889935	          0.05000002	          0.10178234	          0.08402199	          0.23269254	          0.08754466	          0.06969233	          0.24869671	          0.16340310	          0.09989250	          0.05000091	          0.05000042	          0.05000055	          0.05000009	          0.09989097	          0.13773941	          0.05000028	          0.05689307	          0.05003660	          0.05944490	          0.27521781	          0.05000147	          0.05000043	          0.05003720	          0.05004132	          0.05018474	          0.40103442	          0.66916698	          0.05154868	          0.05017939	          0.05944466	          0.21057538	          0.15439710	          0.14361396	          0.13260599	          0.25337398	          0.34603259	          0.32472645	          0.28825921	          0.31258028	          0.38562987	          0.05000003	          0.05000005	          0.12094517	          0.05000007	          0.05000002	          0.05000015	          0.05689676	          0.07067274	          0.05944451	
          0.58933126	         -2.92430980	          2.21897472	         -5.74143612	          0.74240571	          0.91570583	          0.00277250	         28.15310228	          3.81083311	         -2.88190420	        -16.71049603	         -0.95895220	          6.01763140	        -10.49510764	        -10.16611084	          4.86552029	         -2.18828801	         -6.81381778	          6.19128876	         -0.54700552	          4.52852456	          3.43927520	         14.97352165	         -1.59626947	         -0.62164499	          2.07475358	         -5.68191572	        -13.46070030	          9.05313687	          4.93406022	        -13.45651652	         17.59206294	         14.28870969	         33.87593494	         86.51662706	         86.51662706	          0.22430913	          0.21205566	          0.21664422	          0.33179075	          0.23337289	          0.16209610	          0.15946789	          0.06466288	          0.11826874	          0.07165268	          0.05944404	          0.11876110	          0.26005492	          0.25968224	          0.16343224	          0.10692100	          0.05000045	          0.07066355	          0.11377249	          0.05008238	          0.11008043	          0.12777084	          0.05866369	          0.05941642	          0.46294754	          0.20623089	          0.18479215	          0.05651595	          0.06156841	          0.07140681	          0.05959820	          0.05878935	          0.05944445	          0.05282383	          0.05000010	          0.05000020	          0.05000030	          0.52905135	          0.37135850	          0.18858344	          0.31302476	          0.44977509	          0.12524272	          0.05314906	          0.13857239	          0.07067275	          0.29963288	          0.07363576	          0.05861977	          0.30031663	          0.13744199	          0.08402181	          0.05000073	          0.05000013	          0.05000010	          0.05000016	          0.08402067	          0.11585589	          0.05000056	          0.05000036	          0.05000055	          0.05000063	          0.30249660	          0.07327925	          0.05000050	          0.05000057	          0.05000052	          0.05000044	          0.33731938	          0.63539328	          0.05000008	          0.05000036	          0.05000038	          0.18783016	          0.12986705	          0.12079710	          0.11153804	          0.21311842	          0.29105562	          0.27313456	          0.24332697	          0.31083165	          0.38236319	          0.05000001	          0.10454545	          0.14516588	          0.05000009	          0.05000002	          0.05000010	          0.05150167	          0.05944440	          0.05000009	
          0.60066456	         -2.91734987	          2.31378528	         -5.97709676	          0.75971976	          0.91496169	          0.00255691	         27.46402874	          4.03608349	         -2.61317057	        -16.48815674	         -1.25161801	          5.78560304	        -11.13035032	        -12.25622570	          4.21144212	         -2.92133455	         -7.14003998	          7.01908897	         -0.48360767	          3.83274704	          3.65635695	         16.30130364	         -1.37902082	         -0.82616750	          2.12052736	         -6.62015979	        -13.46435629	          8.94259605	          4.56378805	        -13.46330266	         17.75263373	         14.03853394	         35.10456260	         86.51662706	         86.51662706	          0.30835906	          0.31219209	          0.32592456	          0.27907672	          0.21092749	          0.22218270	          0.13413196	          0.05650355	          0.09947847	          0.06026872	          0.05000034	          0.09989259	          0.21873793	          0.21842454	          0.13746683	          0.14273965	          0.05000025	          0.05943694	          0.09569679	          0.18622883	          0.16747982	          0.14858288	          0.05000005	          0.05000005	          0.38939537	          0.17346537	          0.16058494	          0.05000005	          0.06811485	          0.10203593	          0.08034895	          0.05000002	          0.05000008	          0.05000000	          0.05000005	          0.05000054	          0.05000038	          0.61713908	          0.35562829	          0.20588183	          0.46708508	          0.45241704	          0.17753575	          0.07988531	          0.11655632	          0.05944441	          0.27591074	          0.06193667	          0.05000011	          0.25260316	          0.11560552	          0.07067262	          0.05000076	          0.05000012	          0.05000010	          0.05000008	          0.07067180	          0.15253270	          0.05000276	          0.05000155	          0.05000150	          0.05000045	          0.27841296	          0.06599769	          0.05000075	          0.05000195	          0.05000093	          0.05000078	          0.28372678	          0.58962925	          0.05000032	          0.05000059	          0.05000011	          0.15798809	          0.13371580	          0.14988856	          0.14119409	          0.17925859	          0.24481328	          0.22973948	          0.20466770	          0.27357440	          0.35610686	          0.05000001	          0.09336538	          0.15574443	          0.05000007	          0.05000002	          0.05000010	          0.06274201	          0.05000001	          0.05000001	
